# xmcd CD database file
#
# Track frame offsets:
#	150
#	12880
#	25475
#	37727
#	50555
#	63085
#	75810
#	87445
#	98867
#	110375
#	121740
#	134215
#	146490
#	157265
#	170275
#	181952
#	194080
#	204842
#	217472
#	229580
#
# Disc length: 3204 seconds
#
# Revision: 0
# Processed by: cddbd v1.4PL0 Copyright (c) Steve Scherf et al.
# Submitted via: CDex 1.40Release
#
DISCID=140c8214
DTITLE=Light Crust Doughboys - Western Swing Memories
DYEAR=1900
DGENRE=Country
TTITLE0=The Bartender's Daughters (1941)
TTITLE1=Don't Lie To An Innocnet Maiden (1941)
TTITLE2=Rainbow (1940)
TTITLE3=I Want A Feller (1940)
TTITLE4=Little Honky Tonk Headache (1940)
TTITLE5=Mean Mean Mama (1940)
TTITLE6=Have I Lost Your Love Forever (1941)
TTITLE7=South (1940)
TTITLE8=Why Did You Lie To Me (1941)
TTITLE9=She's Too Young (To Play With The Boys) (1940)
TTITLE10=When The Moon Shines On The Mississippi Valley (1936)
TTITLE11=Bear Creek Hop (1941)
TTITLE12=Stumbling (1938)
TTITLE13=Good Gracious Gracie (1940)
TTITLE14=The Little Bar Fly (1941)
TTITLE15=Cripple Creek (1940)
TTITLE16=It's Your Worry Now (1941)
TTITLE17=Little Hillbilly Heart Throb (1936)
TTITLE18=Let's Make Believe We're Sweethearts (1939)
TTITLE19=Three Naughty Kittens (1939)
EXTD=ID3G: 2
EXTT0=
EXTT1=
EXTT2=
EXTT3=
EXTT4=
EXTT5=
EXTT6=
EXTT7=
EXTT8=
EXTT9=
EXTT10=
EXTT11=
EXTT12=
EXTT13=
EXTT14=
EXTT15=
EXTT16=
EXTT17=
EXTT18=
EXTT19=
PLAYORDER=
